<svg xmlns="http://www.w3.org/2000/svg" xmlns:xlink="http://www.w3.org/1999/xlink" version="1.1" id="Camada_1" x="0px" y="0px" style="enable-background:new 0 0 2000 2000;" xml:space="preserve" viewBox="668.95 634.25 662.1 731.51">
<style type="text/css">
	.st0{fill:#1E55F5;}
	.st1{fill:#FFFFFF;}
</style>
<g>
	<path d="M1331.05,965.27c0-6.28-0.19-12.5-0.54-18.69h0.46c-9.71-174.12-153.96-312.33-330.51-312.33   c-6.44,0-12.83,0.21-19.18,0.57v-0.06c-174.12,9.71-312.33,153.96-312.33,330.51c0,173.84,134,316.37,304.34,329.97   c4.32,0.34,7.99-3.13,7.99-7.47v-173.02c1.86-8.62,9.52-15.08,18.7-15.08c10.57,0,19.14,8.57,19.14,19.14l0.12,239.04   c0,6.63,7.67,10.31,12.84,6.16l66.35-53.27l104.4-83.82l0,0C1280.84,1166.36,1331.05,1071.68,1331.05,965.27z"/>
	<circle class="st1" cx="1000" cy="918.28" r="210.26"/>
	<path d="M981.28,1051.1L981.28,1051.1C981.28,1051.1,981.28,1051.1,981.28,1051.1c1.6,0.76,19.82,6.98,37.45,0l0,0   c7.47-3.55,15.16-7.68,15.16-18.2c0-8.7-8.17-17.58-33.88-17.58c-25.71,0-33.88,8.88-33.88,17.58   C966.12,1043.42,973.8,1047.55,981.28,1051.1z"/>
	<g>
		<path d="M1133.94,1017.52c7.5-11.64,12.71-25.1,12.71-40.01c0-38.26-31.02-69.28-69.28-69.28c-8.08,0-15.84,1.38-23.06,3.93    c0,0-26.6,10.53-31.08,37.59s19.22,32.26,34.06,36.7c14.84,4.44,29.28,17.48,34.94,25.74c5.66,8.26,10.72,15.05,21.88,15.05    S1130.64,1022.65,1133.94,1017.52z"/>
		<path d="M866.06,1017.52c-7.5-11.64-12.71-25.1-12.71-40.01c0-38.26,31.02-69.28,69.28-69.28c8.08,0,15.84,1.38,23.06,3.93    c0,0,26.6,10.53,31.08,37.59c4.48,27.06-19.22,32.26-34.06,36.7c-14.84,4.44-29.28,17.48-34.94,25.74    c-5.66,8.26-10.72,15.05-21.88,15.05C874.71,1027.24,869.36,1022.65,866.06,1017.52z"/>
	</g>
</g>
</svg>